<svg xmlns="http://www.w3.org/2000/svg" viewBox="0 0 1000 220"><defs>
<linearGradient id="steel" x1="0" y1="0" x2="0" y2="1" gradientUnits="objectBoundingBox"><stop stop-color="#607780"/><stop offset=".19" stop-color="#f9ffff"/><stop offset=".42" stop-color="#a5bac2"/><stop offset=".64" stop-color="#faffff"/><stop offset="1" stop-color="#6f8790"/></linearGradient>
<linearGradient id="red" x1="0" y1="1" x2="1" y2="0"><stop stop-color="#8e1d31"/><stop offset=".38" stop-color="#d8374a"/><stop offset=".7" stop-color="#ff6875"/><stop offset="1" stop-color="#ad2038"/></linearGradient><filter id="shadow"><feDropShadow dx="3" dy="5" stdDeviation="2" flood-color="#050b10" flood-opacity=".72"/></filter></defs>
<g transform="translate(55 26) skewX(-6) scale(1.04 1.08)" fill="url(#steel)" stroke="#dce9eb" stroke-width="1.1" fill-rule="evenodd" filter="url(#shadow)"><path d="M96 8H31L0 35V76L29 104H96V79H42L26 65V45L42 32H96Z" transform="translate(0 0)"/><path d="M0 8H27V79H95V104H0Z" transform="translate(110 0)"/><path d="M0 8H27V68L38 79H64L74 68V8H100V76L75 104H27L0 76Z" transform="translate(215 0)"/><path d="M0 8H79L101 28V43L88 56L101 69V84L80 104H0ZM27 32V46H69L75 40V37L70 32ZM27 68V80H70L75 75V72L70 68Z" transform="translate(325 0)"/><path d="M0 8H27V79H95V104H0Z" transform="translate(436 0)"/><path d="M7 8H33V104H7Z" transform="translate(541 0)"/><path d="M0 104V8H27L74 62V8H100V104H73L27 50V104Z" transform="translate(591 0)"/><path d="M0 8H100V32H27V46H86V68H27V80H100V104H0Z" transform="translate(701 0)"/></g>
<path d="M46 179H738L787 125L824 146L923 38" fill="none" stroke="#6c1829" stroke-width="14" stroke-linejoin="miter"/><path d="M46 179H738L787 125L824 146L923 38" fill="none" stroke="url(#red)" stroke-width="9" stroke-linejoin="miter"/><path d="M48 176H736L784 121L822 142L920 36" fill="none" stroke="#ffbbc0" stroke-width="1.7" opacity=".72"/>
<path d="M893 33L952 8L936 69L923 38Z" fill="url(#red)" stroke="#ff9ba3" stroke-width="1.4"/></svg>