<svg xmlns="http://www.w3.org/2000/svg" viewBox="0 0 512 512"><title>Clubline 99 app icon</title><defs><linearGradient id="silver" x2="0" y2="1"><stop stop-color="#ffffff"/><stop offset=".43" stop-color="#d9e2eb"/><stop offset=".48" stop-color="#99adbf"/><stop offset="1" stop-color="#e9eef3"/></linearGradient><linearGradient id="red" x2="0" y2="1"><stop stop-color="#ff5664"/><stop offset=".5" stop-color="#e1263e"/><stop offset="1" stop-color="#9e1027"/></linearGradient><linearGradient id="blue" x2="1" y2="1"><stop stop-color="#144f97"/><stop offset="1" stop-color="#061d46"/></linearGradient></defs><rect width="512" height="512" rx="0" fill="url(#blue)"/><g transform="translate(56 56) scale(.78)"><g fill-rule="evenodd" stroke="#041a38" stroke-width="1.5"><path fill="url(#silver)" transform="translate(98 90) scale(4.35 3.1)" d="M8 0H50V18H20V78H50V96H8L0 88V8Z"/><g fill="url(#red)" transform="translate(263 252) scale(1.85 1.75)"><path transform="translate(0 0)" d="M8 0H43L51 8V88L43 96H6V78H31V57H8L0 49V8ZM20 18V39H31V18Z"/><path transform="translate(59 0)" d="M8 0H43L51 8V88L43 96H6V78H31V57H8L0 49V8ZM20 18V39H31V18Z"/></g></g></g></svg>