<svg xmlns="http://www.w3.org/2000/svg" viewBox="0 0 120 170" aria-label="Outfield kit"><defs><clipPath id="k57"><path d="M32 20L46 15Q60 27 74 15L88 20L108 34L99 58L85 52L84 104Q60 110 36 104L35 52L21 58L12 34Z"/></clipPath><linearGradient id="k57shade"><stop stop-color="#fff" stop-opacity=".12"/><stop offset=".45" stop-color="#fff" stop-opacity="0"/><stop offset="1" stop-color="#000" stop-opacity=".22"/></linearGradient></defs><path d="M32 20L46 15Q60 27 74 15L88 20L108 34L99 58L85 52L84 104Q60 110 36 104L35 52L21 58L12 34Z" fill="#182441" stroke="#0a1721" stroke-width="1.5"/><g clip-path="url(#k57)"><path d="M32 20L46 15Q60 27 74 15L88 20L108 34L99 58L85 52L84 104Q60 110 36 104L35 52L21 58L12 34Z" fill="url(#k57shade)"/></g><path d="M46 15L51 29L60 23L69 29L74 15" fill="#efc83a" stroke="#13242d" stroke-width=".8"/><path d="M50 15Q60 23 70 15" fill="#182832"/><path d="M76 36L84 38V46L80 50L76 46Z" fill="#efc83a" stroke="#22313b" stroke-width=".7"/><text x="80" y="44" text-anchor="middle" font-family="sans-serif" font-size="5" fill="#182441">T</text><text x="60" y="64" text-anchor="middle" font-family="DejaVu Sans,sans-serif" font-size="7.2" font-weight="bold" fill="#efc83a">CLUBLINE</text><path d="M39 74L38 99M81 74L82 99" stroke="#fff" stroke-opacity=".1"/><path d="M36 112H84L88 139H65L60 124L55 139H32Z" fill="#182441" stroke="#0b1b23" stroke-width="1.2"/><path d="M38 114L36 135M82 114L84 135" stroke="#efc83a" stroke-width="2"/><path d="M36 146H51V164H36ZM69 146H84V164H69Z" fill="#182441"/><path d="M36 149H51M69 149H84" stroke="#efc83a" stroke-width="3"/></svg>